<svg width="65" height="72" viewBox="0 0 65 72" fill="none" xmlns="http://www.w3.org/2000/svg">
<g id="Vector" filter="url(#filter0_d_1_31)">
<path d="M24.609 28.5985C24.6336 28.6394 24.6667 28.6746 24.706 28.7016C24.7452 28.7287 24.7899 28.747 24.8368 28.7555C24.8838 28.7639 24.932 28.7622 24.9783 28.7505C25.0245 28.7388 25.0677 28.7173 25.105 28.6875L25.125 28.6715C25.646 28.2345 26.109 27.7915 26.552 27.3115C30.828 22.6715 28.333 16.9685 28.313 16.9165C28.2528 16.7815 28.2395 16.6301 28.2752 16.4866C28.3109 16.3431 28.3935 16.2157 28.51 16.1245C28.6315 16.037 28.7791 15.9934 28.9287 16.0008C29.0782 16.0083 29.2208 16.0664 29.333 16.1655C43.833 29.6495 39.99 39.9205 39.714 40.6135C38.551 44.8015 33.933 47.8325 28.453 47.9885C28.27 47.9995 28.13 47.9995 27.969 47.9995C21.5 47.9995 16 44.0155 16 38.9205V38.8435C16 31.7805 22.391 24.8115 22.677 24.5205C22.7619 24.422 22.8772 24.3546 23.0048 24.3291C23.1323 24.3035 23.2647 24.3213 23.381 24.3795C23.4984 24.4284 23.5982 24.512 23.667 24.619C23.7357 24.726 23.7703 24.8514 23.766 24.9785C23.709 26.3595 23.99 27.5625 24.609 28.5785V28.5985Z" fill="white"/>
</g>
<defs>
<filter id="filter0_d_1_31" x="0" y="0" width="64.3767" height="71.9995" filterUnits="userSpaceOnUse" color-interpolation-filters="sRGB">
<feFlood flood-opacity="0" result="BackgroundImageFix"/>
<feColorMatrix in="SourceAlpha" type="matrix" values="0 0 0 0 0 0 0 0 0 0 0 0 0 0 0 0 0 0 127 0" result="hardAlpha"/>
<feOffset dx="4" dy="4"/>
<feGaussianBlur stdDeviation="10"/>
<feComposite in2="hardAlpha" operator="out"/>
<feColorMatrix type="matrix" values="0 0 0 0 0 0 0 0 0 0 0 0 0 0 0 0 0 0 0.25 0"/>
<feBlend mode="normal" in2="BackgroundImageFix" result="effect1_dropShadow_1_31"/>
<feBlend mode="normal" in="SourceGraphic" in2="effect1_dropShadow_1_31" result="shape"/>
</filter>
</defs>
</svg>
